<svg width="71" height="69" viewBox="0 0 71 69" fill="none" xmlns="http://www.w3.org/2000/svg">
<path d="M38.9278 2.1661L46.9357 18.6551C47.4926 19.8019 48.5693 20.5966 49.8148 20.7802L67.7219 23.4245C70.8587 23.888 72.1102 27.8041 69.8413 30.0511L56.8838 42.8859C55.9833 43.7784 55.5716 45.0652 55.7849 46.3249L58.8432 64.4483C59.3793 67.6224 56.1003 70.0425 53.2952 68.545L37.2795 59.9889C36.1657 59.3944 34.8343 59.3944 33.7205 59.9889L17.7047 68.545C14.8997 70.044 11.6207 67.6224 12.1568 64.4483L15.2151 46.3249C15.4284 45.0652 15.0167 43.7784 14.1162 42.8859L1.15874 30.0511C-1.11019 27.8026 0.141276 23.8865 3.27809 23.4245L21.1852 20.7802C22.4307 20.5966 23.5074 19.8019 24.0643 18.6551L32.0722 2.1661C33.4732 -0.722033 37.5253 -0.722033 38.9278 2.1661Z" fill="#FFE500"/>
</svg>
